<svg width="32" height="36" viewBox="0 0 32 36" fill="none" xmlns="http://www.w3.org/2000/svg">
<path d="M0.0288115 12.936C-0.0215482 18.7955 0.0257904 28.8687 0.0286756 35.1433C0.0288207 35.4589 0.289301 35.7143 0.61063 35.7143H8.28809C8.61019 35.7143 8.87104 35.4661 8.87004 35.1497C8.86103 32.2977 8.82397 19.3861 8.87189 13.6647C8.92593 7.21232 23.0285 7.04367 23.0285 13.6647V21.8825C23.0285 22.1981 22.768 22.4535 22.4467 22.4535H19.6573C19.3359 22.4535 19.0754 22.7094 19.0754 23.025V29.8774C19.0754 30.193 19.3359 30.4489 19.6573 30.4489H22.4467C22.768 30.4489 23.0285 30.7047 23.0285 31.0203V35.1429C23.0285 35.4584 23.289 35.7143 23.6103 35.7143H31.4181C31.7395 35.7143 32 35.4584 32 35.1429V30.4962C32 30.4686 31.999 30.441 31.9981 30.4135L31.9978 30.4016C31.9883 30.1059 31.9532 27.9825 32 12.936C32.0533 -4.26242 0.177475 -4.36149 0.0288115 12.936Z" fill="#2A70D8"/>
</svg>
